<svg width="62" height="65" viewBox="0 0 62 65" fill="none" xmlns="http://www.w3.org/2000/svg">
<g id="Group 33">
<ellipse id="Ellipse 3" cx="31" cy="32.5482" rx="31" ry="32.3209" fill="white"/>
<g id="Group 32">
<path id="Vector" d="M21.7273 45.588V31.8917L17.6533 28.0058L14 25.8494V43.1709C14 44.5083 15.0393 45.588 16.3182 45.588H21.7273Z" fill="#4285F4"/>
<path id="Vector_2" d="M40.2727 45.5878H45.6818C46.9646 45.5878 48 44.5041 48 43.1708V25.8494L43.8621 28.3193L40.2727 31.8916V45.5878Z" fill="#34A853"/>
<path id="Vector_3" d="M21.7273 31.8917L21.173 26.5401L21.7273 21.4182L31 28.6691L40.2727 21.4182L40.8928 26.2636L40.2727 31.8917L31 39.1426L21.7273 31.8917Z" fill="#EA4335"/>
<path id="Vector_4" d="M40.2727 21.4182V31.8916L48 25.8492V22.6266C48 19.6377 44.7275 17.9338 42.4365 19.7263L40.2727 21.4182Z" fill="#FBBC04"/>
<path id="Vector_5" d="M14 25.8493L17.5539 28.6284L21.7273 31.8917V21.4182L19.5635 19.7264C17.2685 17.9337 14 19.6377 14 22.6265V25.8492V25.8493Z" fill="#C5221F"/>
</g>
</g>
</svg>
