<svg width="46" height="48" viewBox="0 0 46 48" fill="none" xmlns="http://www.w3.org/2000/svg">
<g id="skill-icons:linkedin" clip-path="url(#clip0_188_159)">
<g id="Group">
<path id="Vector" d="M34.8941 0.827148H11.1059C5.30976 0.827148 0.611084 5.72604 0.611084 11.7691V36.571C0.611084 42.614 5.30976 47.5129 11.1059 47.5129H34.8941C40.6902 47.5129 45.3889 42.614 45.3889 36.571V11.7691C45.3889 5.72604 40.6902 0.827148 34.8941 0.827148Z" fill="white"/>
<path id="Vector_2" d="M34.8941 0.827148H11.1059C5.30976 0.827148 0.611084 5.72604 0.611084 11.7691V36.571C0.611084 42.614 5.30976 47.5129 11.1059 47.5129H34.8941C40.6902 47.5129 45.3889 42.614 45.3889 36.571V11.7691C45.3889 5.72604 40.6902 0.827148 34.8941 0.827148Z" fill="#0A66C2"/>
<path id="Vector_3" d="M32.9202 40.5256H38.0399C38.2254 40.5256 38.4034 40.4488 38.5346 40.312C38.6658 40.1752 38.7395 39.9897 38.7396 39.7963L38.7422 28.5184C38.7422 22.6238 37.5239 18.0929 30.9169 18.0929C28.4053 17.9955 26.0368 19.3454 24.7588 21.5994C24.7525 21.6104 24.743 21.6189 24.7317 21.6237C24.7203 21.6285 24.7078 21.6292 24.696 21.6259C24.6842 21.6226 24.6738 21.6153 24.6663 21.6052C24.6589 21.5952 24.6548 21.5828 24.6547 21.5701V19.3665C24.6547 19.1731 24.581 18.9875 24.4498 18.8507C24.3185 18.7139 24.1406 18.6371 23.955 18.6371H19.0965C18.9109 18.6371 18.7329 18.7139 18.6017 18.8507C18.4705 18.9875 18.3968 19.1731 18.3968 19.3665V39.7952C18.3968 39.9887 18.4705 40.1742 18.6017 40.311C18.7329 40.4478 18.9109 40.5247 19.0965 40.5247H24.2158C24.4014 40.5247 24.5793 40.4478 24.7106 40.311C24.8418 40.1742 24.9155 39.9887 24.9155 39.7952V29.697C24.9155 26.8417 25.435 24.0765 28.8302 24.0765C32.1772 24.0765 32.2205 27.3438 32.2205 29.882V39.7961C32.2205 39.9896 32.2943 40.1751 32.4255 40.3119C32.5567 40.4487 32.7346 40.5256 32.9202 40.5256ZM7.25781 11.7011C7.25781 13.8649 8.96619 15.6452 11.0415 15.6452C13.1164 15.645 14.8237 13.8636 14.8237 11.7004C14.8233 9.53716 13.1158 7.75708 11.0408 7.75708C8.96531 7.75708 7.25781 9.53752 7.25781 11.7011ZM8.47503 40.5256H13.6012C13.7868 40.5256 13.9647 40.4487 14.0959 40.3119C14.2272 40.1751 14.3009 39.9896 14.3009 39.7961V19.3665C14.3009 19.1731 14.2272 18.9875 14.0959 18.8507C13.9647 18.7139 13.7868 18.6371 13.6012 18.6371H8.47503C8.28947 18.6371 8.11151 18.7139 7.9803 18.8507C7.84909 18.9875 7.77538 19.1731 7.77538 19.3665V39.7961C7.77538 39.9896 7.84909 40.1751 7.9803 40.3119C8.11151 40.4487 8.28947 40.5256 8.47503 40.5256Z" fill="white"/>
</g>
</g>
<defs>
<clipPath id="clip0_188_159">
<rect width="44.7778" height="46.6858" fill="white" transform="translate(0.611084 0.827148)"/>
</clipPath>
</defs>
</svg>
