<svg width="62" height="65" viewBox="0 0 62 65" fill="none" xmlns="http://www.w3.org/2000/svg">
<g id="whatsapp">
<path id="Vector" d="M0.249695 31.2328C0.243445 36.6595 1.61566 41.992 4.22799 46.6927L0 62.7162L15.7986 58.4166C20.1682 60.8857 25.064 62.1795 30.0391 62.1798H30.0522C46.4758 62.1798 59.8458 48.3077 59.8526 31.2573C59.8558 22.9949 56.7585 15.2262 51.1317 9.38087C45.506 3.53608 38.0235 0.315774 30.0512 0.3125C13.6249 0.3125 0.256528 14.183 0.249695 31.2328Z" fill="url(#paint0_linear_188_153)"/>
<path id="Vector_2" d="M0.259157 32.3426C0.252703 37.9637 1.67405 43.4872 4.37991 48.3563L0 64.9544L16.3647 60.5004C20.8911 63.0588 25.9628 64.3995 31.1167 64.4H31.1298C48.1427 64.4 61.9921 50.0287 62 32.3683C62.0026 23.809 58.7939 15.7609 52.9663 9.70606C47.1376 3.6523 39.3876 0.315774 31.1298 0.3125C14.1138 0.3125 0.265991 14.6811 0.259157 32.3426ZM10.0051 47.5198L9.39378 46.5132C6.824 42.2692 5.46406 37.3568 5.47121 32.3442C5.47646 17.6652 16.9866 5.72297 31.1398 5.72297C37.993 5.72569 44.4341 8.49858 49.2792 13.5304C54.1238 18.5627 56.7895 25.2516 56.7874 32.3661C56.7811 47.0457 45.2715 58.9901 31.1293 58.9901H31.1199C26.5248 58.9904 22.0141 57.7085 18.06 55.2787L17.1228 54.7014L7.41199 57.3445L10.0046 47.5198H10.0051Z" fill="url(#paint1_linear_188_153)"/>
<path id="Vector_3" d="M22.1634 18.6288C21.5851 17.2958 20.9775 17.2691 20.4281 17.2456C19.9781 17.2254 19.4635 17.2271 18.9499 17.2271C18.4348 17.2271 17.5995 17.4279 16.893 18.2289C16.1859 19.0298 14.1931 20.9663 14.1931 24.9057C14.1931 28.8452 16.9571 32.6509 17.3424 33.1857C17.7283 33.7193 22.6785 42.0614 30.5184 45.2703C37.0347 47.9373 38.3604 47.407 39.7745 47.2733C41.1885 47.1401 44.3384 45.3374 44.9807 43.4675C45.6236 41.5982 45.6236 39.9957 45.4307 39.6612C45.2383 39.3278 44.7237 39.127 43.9525 38.7271C43.1808 38.3266 39.3886 36.3896 38.6821 36.1222C37.9746 35.8554 37.4605 35.7223 36.9458 36.5238C36.4317 37.3243 34.9546 39.127 34.5046 39.6612C34.0546 40.1959 33.6041 40.263 32.833 39.8631C32.0613 39.461 29.5769 38.6163 26.63 35.8893C24.337 33.7668 22.7889 31.1466 22.3389 30.3451C21.889 29.5441 22.2911 29.1109 22.6775 28.7115C23.0244 28.353 23.4492 27.7768 23.835 27.3092C24.2198 26.8416 24.3486 26.5082 24.6056 25.9741C24.8632 25.4394 24.7339 24.9723 24.5415 24.5718C24.3486 24.1713 22.8494 20.2122 22.1634 18.6288Z" fill="white"/>
</g>
<defs>
<linearGradient id="paint0_linear_188_153" x1="2992.63" y1="6240.68" x2="2992.63" y2="0.3125" gradientUnits="userSpaceOnUse">
<stop stop-color="#1FAF38"/>
<stop offset="1" stop-color="#60D669"/>
</linearGradient>
<linearGradient id="paint1_linear_188_153" x1="3100" y1="6464.5" x2="3100" y2="0.3125" gradientUnits="userSpaceOnUse">
<stop stop-color="#F9F9F9"/>
<stop offset="1" stop-color="white"/>
</linearGradient>
</defs>
</svg>
